<svg xmlns="http://www.w3.org/2000/svg" viewBox="0 0 236 430.1"><defs><style>.cls-1{fill:#2467a1;}.cls-2{fill:#fff;}.cls-3{fill:#f9d4d1;}.cls-4,.cls-5{fill:none;stroke:#ff1cff;stroke-miterlimit:10;}.cls-4{stroke-width:1.23px;}.cls-5{stroke-width:1.27px;}.cls-6{fill:#ff8da4;}.cls-7{fill:#222;}</style></defs><g id="Layer_2" data-name="Layer 2"><g id="Layer_2-2" data-name="Layer 2"><path class="cls-1" d="M105.5,1.6c-18.79,5.85-24.58,25.49-25,27-5,18,8,24.26,2,39-5.22,12.92-17.63,14.22-22,31-1,4-2.13,8.18-1,12,7.42,25.08,108.17,28,118,3,10.22-25.94-8.17-12.26-19-37-3.72-8.5,2.3-10-8-43-5.38-17.24-6.66-21-11-25C130.94.68,117.27-2.06,105.5,1.6Z"/><rect class="cls-2" y="198.1" width="236" height="232" rx="18.23"/><circle cx="52" cy="258.1" r="25.5"/><path class="cls-3" d="M145,42.1c0,14.22-7.49,26.34-18,31a23.33,23.33,0,0,1-17,.78C98.46,69.94,90,57.21,90,42.1c0-18.23,12.31-33,27.5-33S145,23.87,145,42.1Z"/><path class="cls-3" d="M127,73.08v8H110V73.86a23.33,23.33,0,0,0,17-.78Z"/><path class="cls-4" d="M85.08,188.33c-.37.41-.73.81-1.06,1.2,0,0,0,0,0,0V187.8Z"/><polygon class="cls-5" points="79 126.1 78.52 126.58 78.04 126.1 79 126.1"/><path class="cls-3" d="M78,126l-5.31,19.47a58.33,58.33,0,0,0-16.38-.74L65,113Z"/><path class="cls-6" d="M174,116.38,160.53,128l-.53.46-1.77,1.52-3.3-3.83L154,125v1.08H84v-5l-5,5H78L78,126,65,113l-3.68-3.68L84,83.1l22-2h26.91a20.1,20.1,0,0,1,2.81.19L154,86.1l17,19.67.13.15Z"/><path class="cls-3" d="M182.2,146.62c-4.13-.47-9.7,0-16.23,1.28l-5.44-20L174,116.38Z"/><path class="cls-7" d="M160,128.41v20.84c-1.94.49-3.94,1-6,1.64a205.62,205.62,0,0,0-25.58,9.62q-3.31,1.5-6.49,3.05c-4.55-2.55-9.47-5-14.67-7.29A164.38,164.38,0,0,0,84,148c-2-.55-4.06-1-6-1.45V126.1h0l.48.48.48-.48h75.93l3.3,3.83Z"/><path class="cls-1" d="M153.18,196.89a4.29,4.29,0,0,1-.19.5c-.11.24-.23.48-.36.71H109.42a170.12,170.12,0,0,1-17.64-6.65c-2.29-1-4.53-2-6.7-3.12L84,187.8c-25.25-12.6-41.84-28.63-37.95-37.47,1.34-3.06,5-4.89,10.25-5.56a58.33,58.33,0,0,1,16.38.74q2.58.42,5.32,1c1.94.42,4,.9,6,1.45a164.38,164.38,0,0,1,23.26,8.29c5.2,2.29,10.12,4.74,14.67,7.29,3.81,2.13,7.37,4.33,10.61,6.54,7.78,5.31,13.81,10.72,17.37,15.62a24.17,24.17,0,0,1,2.3,3.77C153.55,192.25,153.92,194.76,153.18,196.89Z"/><path class="cls-1" d="M109.42,198.1H84v-8.55s0,0,0,0c.33-.39.69-.79,1.06-1.2,2.17,1.08,4.41,2.12,6.7,3.12A170.12,170.12,0,0,0,109.42,198.1Z"/><path class="cls-1" d="M154,183.62q-2,1.06-4.09,2.1c-3.56-4.9-9.59-10.31-17.37-15.62-3.24-2.21-6.8-4.41-10.61-6.54q3.18-1.55,6.49-3.05A205.62,205.62,0,0,1,154,150.89c2.06-.61,4.06-1.15,6-1.64s4.06-1,6-1.35c6.53-1.29,12.1-1.75,16.23-1.28,3.91.43,6.54,1.68,7.5,3.81C192.81,157.33,177.45,171.21,154,183.62Z"/><path class="cls-7" d="M90.5,189.53v0c-2.51,3-3.94,5.66-4.09,7.9a72.28,72.28,0,0,1-9.91.65c-11,0-20-2.24-20-5s9-5,20-5A61.8,61.8,0,0,1,90.5,189.53Z"/><path class="cls-4" d="M101,252.1s0,0,0,0v0Z"/><path class="cls-7" d="M182.5,193.1c0,2.76-9.14,5-20.41,5A69.25,69.25,0,0,1,149.5,197v-7.88a69.25,69.25,0,0,1,12.59-1.06C173.36,188.1,182.5,190.34,182.5,193.1Z"/><circle cx="185" cy="377.1" r="25.5"/></g></g></svg>