<svg xmlns="http://www.w3.org/2000/svg" xmlns:xlink="http://www.w3.org/1999/xlink" viewBox="0 0 280.12 415.94"><defs><style>.cls-1{fill:none;}.cls-2{fill:#7395ae;}.cls-3{fill:#f2f3f4;}.cls-4{clip-path:url(#clip-path);}.cls-5{fill:#617d8e;}.cls-6{fill:#261513;}.cls-7{fill:#f9d4d1;}.cls-8{fill:#ceb1af;}.cls-9{fill:#ff8da4;}.cls-10{fill:#2467a1;}.cls-11{fill:#1f567f;}.cls-12{fill:#222;}.cls-13{fill:#a7eaaa;}.cls-14{fill:#fff;}</style><clipPath id="clip-path" transform="translate(-1.54 -36.71)"><rect class="cls-1" width="282" height="383"/></clipPath></defs><g id="Layer_2" data-name="Layer 2"><g id="Layer_2-2" data-name="Layer 2"><rect class="cls-2" width="280.12" height="383.64" rx="13.58"/><rect class="cls-3" x="20.97" y="19.06" width="239.11" height="327.47" rx="11.59"/><g class="cls-4"><circle class="cls-5" cx="145.01" cy="328.75" r="11.04"/><path class="cls-6" d="M125.94,202c-24,7.47-31.35,32.51-31.89,34.44-6.34,22.9,10.16,30.93,2.55,49.74-6.66,16.47-22.48,18.13-28,39.53-1.32,5.07-2.72,10.43-1.28,15.31,9.47,32,138,35.65,150.49,3.83,13-33.09-10.42-15.65-24.23-47.19-4.75-10.85,2.94-12.77-10.2-54.84-6.87-22-8.49-26.76-14-31.89C158.39,200.87,141,197.37,125.94,202Z" transform="translate(-1.54 -36.71)"/><path class="cls-7" d="M176.31,253.7c0,18.13-9.55,33.59-22.95,39.51a29.84,29.84,0,0,1-12.12,2.57,29.4,29.4,0,0,1-9.56-1.58c-14.72-5-25.51-21.23-25.51-40.5,0-23.25,15.7-42.09,35.07-42.09S176.31,230.45,176.31,253.7Z" transform="translate(-1.54 -36.71)"/><path class="cls-8" d="M153.36,293.21v10.23H131.68V294.2a29.4,29.4,0,0,0,9.56,1.58A29.84,29.84,0,0,0,153.36,293.21Z" transform="translate(-1.54 -36.71)"/><path class="cls-7" d="M90.85,360.75l-6.77,24.83c-8.11-1.34-15.24-1.67-20.89-.94l11-40.51Z" transform="translate(-1.54 -36.71)"/><path class="cls-9" d="M217.76,344.89l-21.64,18.3-.67.58-2.26,1.94L189,360.83l-1.19-1.38v1.38H98.52v-6.38l-6.38,6.38H90.92l-.07-.08L74.23,344.13l-4.69-4.69L80.1,327.25a69.79,69.79,0,0,1,46.44-23.81h34.32a24.94,24.94,0,0,1,3.58.24h0a77.75,77.75,0,0,1,39.13,24.41l5.88,6.81.16.19Z" transform="translate(-1.54 -36.71)"/><polygon class="cls-9" points="185.69 375.11 96.98 375.11 96.98 324.12 187.44 324.12 185.69 375.11"/><path class="cls-7" d="M223.76,387c-5.27-.6-12.37,0-20.7,1.63l-6.94-25.44,17.13-14.76Z" transform="translate(-1.54 -36.71)"/><path class="cls-10" d="M186.75,451.11c-.07.22-.16.43-.24.64s-.3.61-.46.9H130.94a215.31,215.31,0,0,1-22.5-8.48c-2.92-1.27-5.78-2.6-8.54-4-.46-.21-.92-.44-1.38-.67C66.31,423.45,45.16,403,50.12,391.73c1.71-3.9,6.35-6.24,13.07-7.09,5.65-.73,12.78-.4,20.89.94q3.28.54,6.79,1.3c2.47.54,5,1.15,7.65,1.85a209.2,209.2,0,0,1,29.66,10.58c6.63,2.92,12.91,6,18.71,9.29,4.86,2.72,9.4,5.52,13.53,8.34,9.93,6.78,17.62,13.68,22.16,19.92a31.19,31.19,0,0,1,2.93,4.81C187.22,445.19,187.69,448.39,186.75,451.11Z" transform="translate(-1.54 -36.71)"/><path class="cls-11" d="M130.94,452.65H98.52v-10.9s0,0,0,0c.42-.49.88-1,1.36-1.53,2.76,1.38,5.62,2.71,8.54,4A215.31,215.31,0,0,0,130.94,452.65Z" transform="translate(-1.54 -36.71)"/><path class="cls-11" d="M187.79,434.19c-1.71.9-3.44,1.79-5.21,2.67-4.54-6.24-12.23-13.14-22.16-19.92-4.13-2.82-8.67-5.62-13.53-8.34,2.71-1.31,5.46-2.61,8.28-3.89a262.41,262.41,0,0,1,32.62-12.27c2.63-.77,5.18-1.46,7.66-2.09s5.17-1.23,7.61-1.72c8.33-1.64,15.43-2.23,20.7-1.63,5,.55,8.34,2.14,9.56,4.86C237.29,400.66,217.7,418.36,187.79,434.19Z" transform="translate(-1.54 -36.71)"/><path class="cls-12" d="M106.81,441.72v0c-3.2,3.79-5,7.22-5.22,10.07a91,91,0,0,1-12.64.83c-14.09,0-25.5-2.85-25.5-6.37S74.86,439.9,89,439.9A79.07,79.07,0,0,1,106.81,441.72Z" transform="translate(-1.54 -36.71)"/><path class="cls-12" d="M224.14,446.28c0,3.52-11.65,6.37-26,6.37a88.65,88.65,0,0,1-16.06-1.35V441.25a88.65,88.65,0,0,1,16.06-1.35C212.49,439.9,224.14,442.76,224.14,446.28Z" transform="translate(-1.54 -36.71)"/><circle class="cls-13" cx="140.12" cy="90.87" r="41.58"/><path class="cls-14" d="M113.86,129.36,128,151a6,6,0,0,0,10.25,0,232.32,232.32,0,0,1,14.36-21.09l.42-.54c-.47.6-.5.65-.1.13s.65-.83,1-1.25c.65-.82,1.31-1.65,2-2.46,1.33-1.64,2.69-3.26,4.06-4.86q4.2-4.87,8.67-9.52c2.15-2.24,2.39-6.2,0-8.4a6,6,0,0,0-8.4,0A238.82,238.82,0,0,0,128,145h10.25l-14.12-21.64c-1.7-2.59-5.34-3.92-8.13-2.13-2.59,1.68-3.94,5.34-2.12,8.13Z" transform="translate(-1.54 -36.71)"/></g><circle class="cls-5" cx="138.61" cy="366.12" r="11.04"/></g></g></svg>