<svg xmlns="http://www.w3.org/2000/svg" viewBox="0 0 237 430.6"><defs><style>.cls-1{fill:#000810;}.cls-2{fill:#fff;stroke:#000;stroke-miterlimit:10;}.cls-3{fill:#f9d4d1;}.cls-4{fill:#ceb1af;}.cls-5{fill:#ff8da4;}.cls-6{fill:#222;}.cls-7{fill:#2467a1;}.cls-8{fill:#1f567f;}</style></defs><g id="Layer_2" data-name="Layer 2"><g id="Layer_2-2" data-name="Layer 2"><path class="cls-1" d="M106,1.6c-18.79,5.85-24.58,25.49-25,27-5,18,8,24.26,2,39-5.22,12.92-17.63,14.22-22,31-1,4-2.13,8.18-1,12,7.42,25.08,108.17,28,118,3,10.22-25.94-8.17-12.26-19-37-3.72-8.5,2.3-10-8-43-5.38-17.24-6.66-21-11-25C131.44.68,117.77-2.06,106,1.6Z"/><rect class="cls-2" x="0.5" y="198.1" width="236" height="232" rx="18.23"/><circle cx="52.5" cy="258.1" r="25.5"/><path class="cls-3" d="M145.5,42.1c0,14.22-7.49,26.34-18,31a23.33,23.33,0,0,1-17,.78C99,69.94,90.5,57.21,90.5,42.1c0-18.23,12.31-33,27.5-33S145.5,23.87,145.5,42.1Z"/><path class="cls-4" d="M127.5,73.08v8h-17V73.86a23.33,23.33,0,0,0,17-.78Z"/><path class="cls-3" d="M78.49,126l-5.31,19.47a58.33,58.33,0,0,0-16.38-.74L65.46,113Z"/><path class="cls-5" d="M178,113.6,161,128l-.53.46-1.77,1.52-3.3-3.83L154.5,125v1.08h-70v-5l-5,5h-1l-.05-.06-13-13-3.68-3.68,8.28-9.55A54.74,54.74,0,0,1,106.47,81.1h26.91a20.1,20.1,0,0,1,2.81.19h0a61.07,61.07,0,0,1,30.68,19.14l4.61,5.34.13.15Z"/><path class="cls-3" d="M182.7,146.62c-4.13-.47-9.7,0-16.23,1.28L161,128l13.43-11.57Z"/><path class="cls-6" d="M160.5,128.41v20.84c-1.94.49-3.94,1-6,1.64a205.62,205.62,0,0,0-25.58,9.62q-3.31,1.5-6.49,3.05c-4.55-2.55-9.47-5-14.67-7.29A164.38,164.38,0,0,0,84.5,148c-2-.55-4.06-1-6-1.45L79,129.6v-3l.5-.5h74.7a22.22,22.22,0,0,1,2.45.14l3.35.36Z"/><path class="cls-7" d="M153.68,196.89a4.29,4.29,0,0,1-.19.5c-.11.24-.23.48-.36.71H109.92a170.12,170.12,0,0,1-17.64-6.65c-2.29-1-4.53-2-6.7-3.12l-1.08-.53c-25.25-12.6-41.84-28.63-37.95-37.47,1.34-3.06,5-4.89,10.25-5.56a58.33,58.33,0,0,1,16.38.74q2.58.42,5.32,1c1.94.42,4,.9,6,1.45a164.38,164.38,0,0,1,23.26,8.29c5.2,2.29,10.12,4.74,14.67,7.29,3.81,2.13,7.37,4.33,10.61,6.54,7.78,5.31,13.81,10.72,17.37,15.62a24.17,24.17,0,0,1,2.3,3.77C154.05,192.25,154.42,194.76,153.68,196.89Z"/><path class="cls-8" d="M109.92,198.1H84.5v-8.55s0,0,0,0c.33-.39.69-.79,1.06-1.2,2.17,1.08,4.41,2.12,6.7,3.12A170.12,170.12,0,0,0,109.92,198.1Z"/><path class="cls-8" d="M154.5,183.62q-2,1.06-4.09,2.1c-3.56-4.9-9.59-10.31-17.37-15.62-3.24-2.21-6.8-4.41-10.61-6.54q3.18-1.55,6.49-3.05a205.62,205.62,0,0,1,25.58-9.62c2.06-.61,4.06-1.15,6-1.64s4.06-1,6-1.35c6.53-1.29,12.1-1.75,16.23-1.28,3.91.43,6.54,1.68,7.5,3.81C193.31,157.33,178,171.21,154.5,183.62Z"/><path class="cls-6" d="M91,189.53v0c-2.51,3-3.94,5.66-4.09,7.9a72.28,72.28,0,0,1-9.91.65c-11,0-20-2.24-20-5s9-5,20-5A61.8,61.8,0,0,1,91,189.53Z"/><path class="cls-6" d="M183,193.1c0,2.76-9.14,5-20.41,5A69.25,69.25,0,0,1,150,197v-7.88a69.25,69.25,0,0,1,12.59-1.06C173.86,188.1,183,190.34,183,193.1Z"/><circle cx="185.5" cy="377.1" r="25.5"/></g></g></svg>